<svg width="41" height="40" viewBox="0 0 41 40" fill="none" xmlns="http://www.w3.org/2000/svg">
<path d="M27.333 27.3334H12.6663C11.6538 27.3334 10.833 26.5125 10.833 25.5V14.4203C10.8757 13.439 11.6842 12.6658 12.6663 12.6667H27.333C28.3455 12.6667 29.1663 13.4875 29.1663 14.5V25.5C29.1663 26.5125 28.3455 27.3334 27.333 27.3334ZM12.6663 16.2124V25.5H27.333V16.2124L19.9997 21.1L12.6663 16.2124ZM13.3997 14.5L19.9997 18.9L26.5997 14.5H13.3997Z" fill="#373737"/>
<path d="M40.5 20C40.5 30.758 31.5574 39.5 20.5 39.5C9.44259 39.5 0.5 30.758 0.5 20C0.5 9.24201 9.44259 0.5 20.5 0.5C31.5574 0.5 40.5 9.24201 40.5 20Z" stroke="#CDCDCD"/>
</svg>
