<svg width="41" height="40" viewBox="0 0 41 40" fill="none" xmlns="http://www.w3.org/2000/svg">
<path d="M20.0237 10.8333C15.5384 10.8327 11.7148 14.0856 10.9967 18.5131C10.2786 22.9405 12.8779 27.2352 17.1334 28.6524C17.5918 28.7349 17.7559 28.4535 17.7559 28.2115C17.7559 27.9942 17.7485 27.4186 17.7458 26.6531C15.202 27.2031 14.6649 25.4266 14.6649 25.4266C14.4974 24.8739 14.1374 24.3994 13.6501 24.0892C12.8251 23.5218 13.7134 23.5346 13.7134 23.5346C14.3006 23.6152 14.8175 23.9631 15.1131 24.477C15.3633 24.9319 15.7848 25.268 16.284 25.4107C16.7831 25.5534 17.3186 25.4908 17.7714 25.2369C17.814 24.7731 18.0203 24.3396 18.3535 24.0141C16.324 23.784 14.19 22.9993 14.19 19.4949C14.1788 18.5885 14.5153 17.7123 15.1305 17.0465C14.8522 16.2575 14.885 15.3921 15.2222 14.6265C15.2222 14.6265 15.9894 14.3799 17.7357 15.5624C19.2334 15.1517 20.814 15.1517 22.3117 15.5624C24.0589 14.379 24.8252 14.6265 24.8252 14.6265C25.164 15.3918 25.1968 16.2578 24.9169 17.0465C25.5343 17.7122 25.8706 18.5907 25.8555 19.4986C25.8555 23.0121 23.7197 23.784 21.6829 24.0104C22.1222 24.4596 22.3476 25.0759 22.3016 25.7026C22.3016 26.9254 22.2906 27.9117 22.2906 28.2115C22.2906 28.4562 22.4538 28.7404 22.9204 28.6506C27.1741 27.231 29.7706 22.936 29.051 18.5098C28.3314 14.0835 24.5081 10.8323 20.0237 10.8333Z" fill="#373737"/>
<path d="M40.5 20C40.5 30.758 31.5574 39.5 20.5 39.5C9.44259 39.5 0.5 30.758 0.5 20C0.5 9.24201 9.44259 0.5 20.5 0.5C31.5574 0.5 40.5 9.24201 40.5 20Z" stroke="#CDCDCD"/>
</svg>
