<svg width="42" height="40" viewBox="0 0 42 40" fill="none" xmlns="http://www.w3.org/2000/svg">
<path d="M21.002 29.041C18.542 29.041 18.252 29.028 17.292 28.986C16.5433 28.9614 15.8044 28.8092 15.107 28.536C13.9003 28.0664 12.9461 27.1119 12.477 25.905C12.2143 25.205 12.0726 24.4655 12.058 23.718C12.002 22.76 12.002 22.446 12.002 20.005C12.002 17.538 12.015 17.25 12.058 16.295C12.0729 15.5485 12.2146 14.81 12.477 14.111C12.9456 12.9025 13.9013 11.9472 15.11 11.479C15.8086 11.2152 16.5473 11.0731 17.294 11.059C18.249 11.005 18.563 11.005 21.002 11.005C23.482 11.005 23.767 11.018 24.712 11.059C25.4605 11.0733 26.2012 11.2153 26.902 11.479C28.1103 11.9477 29.0658 12.9029 29.535 14.111C29.8021 14.8202 29.9445 15.5703 29.956 16.328C30.012 17.286 30.012 17.599 30.012 20.039C30.012 22.479 29.998 22.799 29.956 23.746C29.9411 24.4942 29.799 25.2344 29.536 25.935C29.0656 27.1427 28.11 28.0976 26.902 28.567C26.2022 28.8292 25.4631 28.9709 24.716 28.986C23.761 29.041 23.448 29.041 21.002 29.041ZM20.968 12.588C18.522 12.588 18.268 12.6 17.313 12.643C16.7429 12.6506 16.1784 12.7557 15.644 12.954C14.8547 13.256 14.2302 13.878 13.925 14.666C13.7252 15.2063 13.62 15.777 13.614 16.353C13.561 17.322 13.561 17.576 13.561 20.005C13.561 22.405 13.57 22.696 13.614 23.659C13.6229 24.2292 13.728 24.7938 13.925 25.329C14.2306 26.1165 14.855 26.738 15.644 27.04C16.1781 27.2396 16.7428 27.3448 17.313 27.351C18.281 27.407 18.536 27.407 20.968 27.407C23.421 27.407 23.675 27.395 24.622 27.351C25.1924 27.3441 25.7573 27.2389 26.292 27.04C27.0764 26.7354 27.6969 26.1153 28.002 25.331C28.2014 24.7903 28.3065 24.2193 28.313 23.643H28.324C28.367 22.687 28.367 22.432 28.367 19.989C28.367 17.546 28.356 17.289 28.313 16.334C28.304 15.7645 28.1988 15.2005 28.002 14.666C27.6976 13.8806 27.077 13.2593 26.292 12.954C25.7574 12.7547 25.1924 12.6495 24.622 12.643C23.655 12.588 23.402 12.588 20.968 12.588ZM21.002 24.624C19.1319 24.6252 17.4454 23.4997 16.7288 21.7725C16.0123 20.0452 16.4069 18.0563 17.7286 16.7335C19.0503 15.4106 21.0388 15.0143 22.7667 15.7293C24.4946 16.4444 25.6215 18.13 25.622 20C25.6192 22.5511 23.553 24.619 21.002 24.624ZM21.002 16.998C19.3451 16.998 18.002 18.3412 18.002 19.998C18.002 21.6549 19.3451 22.998 21.002 22.998C22.6588 22.998 24.002 21.6549 24.002 19.998C23.9981 18.3427 22.6572 17.0019 21.002 16.998ZM25.802 16.285C25.2074 16.2828 24.7269 15.7996 24.728 15.205C24.7291 14.6104 25.2114 14.129 25.806 14.129C26.4005 14.129 26.8828 14.6104 26.884 15.205C26.8842 15.4919 26.7702 15.767 26.5672 15.9697C26.3642 16.1723 26.0888 16.2858 25.802 16.285Z" fill="#373737"/>
<path d="M41.5 20C41.5 30.7468 32.3451 39.5 21 39.5C9.65489 39.5 0.5 30.7468 0.5 20C0.5 9.25316 9.65489 0.5 21 0.5C32.3451 0.5 41.5 9.25316 41.5 20Z" stroke="#CDCDCD"/>
</svg>
