<svg width="40" height="40" viewBox="0 0 40 40" fill="none" xmlns="http://www.w3.org/2000/svg">
<path d="M21.3333 26H18V16H21.3333V17.6667C22.0438 16.7627 23.1213 16.2238 24.2708 16.1975C26.338 16.209 28.006 17.8911 28 19.9583V26H24.6666V20.375C24.5333 19.4438 23.7348 18.753 22.7941 18.755C22.3827 18.768 21.9943 18.9481 21.7187 19.2538C21.443 19.5595 21.3039 19.9644 21.3333 20.375V26ZM16.3333 26H13V16H16.3333V26ZM14.6667 14.3333C13.7462 14.3333 13 13.5871 13 12.6667C13 11.7462 13.7462 11 14.6667 11C15.5871 11 16.3333 11.7462 16.3333 12.6667C16.3333 13.1087 16.1577 13.5326 15.8452 13.8452C15.5326 14.1577 15.1087 14.3333 14.6667 14.3333Z" fill="#373737"/>
<circle cx="20" cy="20" r="19.5" stroke="#CDCDCD"/>
</svg>
